<svg width="205" height="33" viewBox="0 0 205 33" fill="none" xmlns="http://www.w3.org/2000/svg">
<g clip-path="url(#clip0)">
<path fill-rule="evenodd" clip-rule="evenodd" d="M3.34189 23.9196C2.16325 23.5864 1.14343 23.3024 1.14343 22.1534C1.14343 21.3101 1.88739 20.6744 2.87482 20.6744C4.01376 20.6744 5.04926 21.4532 5.04926 22.3128V22.5924H5.80054V19.9797H5.04926V20.7487C4.5383 20.1742 3.75045 19.8345 2.90095 19.8345C1.42137 19.8345 0.306464 20.8317 0.306464 22.1534C0.306464 23.9785 1.77977 24.4056 3.08276 24.7803C4.23633 25.1156 5.33033 25.4312 5.33033 26.636C5.33033 27.6835 4.51113 28.4448 3.3816 28.4448C2.11414 28.4448 1.04103 27.453 1.04103 26.2778V25.8791H0.279297V29.1515H1.04103V28.1488C1.54676 28.8468 2.44119 29.2826 3.39414 29.2826C5.00433 29.2826 6.21745 28.1619 6.21745 26.6742C6.21745 24.7256 4.68981 24.2964 3.34189 23.9196Z" fill="#6D6E6A"/>
<path fill-rule="evenodd" clip-rule="evenodd" d="M9.00823 20.6614L8.17022 21.3528V22.705H7.10547V23.4925H8.17022V28.0517C8.17022 28.8665 8.56728 29.2968 9.32274 29.2968C9.57456 29.2968 9.86922 29.2488 10.1963 29.1505L10.2621 29.1286V28.3411L10.1503 28.3684C9.85251 28.4449 9.62681 28.482 9.46067 28.482C9.07406 28.482 9.00927 28.3029 9.00927 27.7611V23.4925H10.2621V22.705H9.00927V20.6614H9.00823Z" fill="#6D6E6A"/>
<path fill-rule="evenodd" clip-rule="evenodd" d="M13.7671 23.9655V22.705H11.7891V23.4926H12.928V28.3673H11.7891V29.1527H14.9938V28.3673H13.766V25.8693C13.766 25.025 13.9144 24.4821 14.2446 24.1097C14.6343 23.6761 15.3114 23.4652 16.3145 23.4652L16.5371 23.4696V22.6209L16.4524 22.6144C15.2278 22.5281 14.2623 23.0251 13.7671 23.9655Z" fill="#6D6E6A"/>
<path fill-rule="evenodd" clip-rule="evenodd" d="M22.1773 24.4035C22.1773 23.1977 21.3633 22.5347 19.8848 22.5347C18.6362 22.5347 17.8964 22.9781 17.4126 24.0147L17.3645 24.1195L18.0374 24.3009L18.0688 24.231C18.3833 23.5385 18.9434 23.213 19.8347 23.213C20.8325 23.213 21.3372 23.6215 21.3372 24.4265V25.7274C20.728 25.4183 20.1753 25.273 19.6069 25.273C18.2715 25.273 17.3008 26.1217 17.3008 27.298C17.3008 28.3881 18.143 29.2456 19.215 29.2456C19.9141 29.2456 20.6277 28.9452 21.3372 28.3575V29.1516H23.1637V28.3663H22.1763V24.4035H22.1773ZM19.3801 28.5247C18.6706 28.5247 18.1545 28.0255 18.1545 27.3385C18.1545 26.5236 18.7835 25.9753 19.7218 25.9753C20.2683 25.9753 20.6977 26.1118 21.3383 26.4919V27.5405C20.8607 28.1129 20.0426 28.5247 19.3801 28.5247Z" fill="#6D6E6A"/>
<path fill-rule="evenodd" clip-rule="evenodd" d="M25.8071 20.6614L24.968 21.3528V22.705H23.9043V23.4925H24.968V28.0517C24.968 28.8665 25.3651 29.2968 26.1195 29.2968C26.3723 29.2968 26.667 29.2488 26.993 29.1505L27.0578 29.1286V28.3411L26.947 28.3684C26.6492 28.4449 26.4225 28.482 26.2564 28.482C25.8708 28.482 25.806 28.3029 25.806 27.7611V23.4925H27.0578V22.705H25.806V20.6614H25.8071Z" fill="#6D6E6A"/>
<path fill-rule="evenodd" clip-rule="evenodd" d="M33.7211 27.2729C33.1526 28.1238 32.3481 28.5913 31.4557 28.5913C30.1486 28.5913 29.0775 27.5176 29.0305 26.1741H34.4076L34.4055 26.078C34.3679 23.9601 33.1307 22.5347 31.3293 22.5347C29.5101 22.5347 28.1904 23.9644 28.1904 25.9349C28.1904 27.9053 29.5321 29.3384 31.3805 29.3384C32.6438 29.3384 33.7973 28.6819 34.394 27.6246L34.4452 27.534L33.766 27.2063L33.7211 27.2729ZM31.2781 23.3069C32.4661 23.3069 33.2791 24.0638 33.5236 25.3909H29.0587C29.3053 24.0835 30.1277 23.3069 31.2781 23.3069Z" fill="#6D6E6A"/>
<path fill-rule="evenodd" clip-rule="evenodd" d="M41.1314 23.8606C40.5849 23.0535 39.7845 22.6133 38.8567 22.6133C37.1368 22.6133 35.792 24.0955 35.792 25.9884C35.792 27.842 37.0981 29.2455 38.8316 29.2455C39.7929 29.2455 40.634 28.7999 41.1314 28.0397V29.2827C41.1314 31.2072 39.3112 31.3034 38.9455 31.3034C38.1953 31.3034 37.5547 31.0707 37.0427 30.613L36.98 30.5552L36.4262 31.1319L36.4921 31.2007C37.0626 31.7971 37.8891 32.1149 38.8828 32.1149C40.0301 32.1149 41.9726 31.5054 41.9726 29.216V23.4926H43.0854V22.705H41.1325V23.8606H41.1314ZM38.8692 28.4711C37.5589 28.4711 36.6446 27.4411 36.6446 25.96C36.6446 24.5007 37.6007 23.3975 38.8692 23.3975C40.1241 23.3975 41.145 24.5302 41.145 25.9218C41.144 27.3767 40.167 28.4711 38.8692 28.4711Z" fill="#6D6E6A"/>
<path fill-rule="evenodd" clip-rule="evenodd" d="M48.3306 23.4924H49.2386L47.6838 27.7926L45.9994 23.4924H46.9304V22.7048H44.1416V23.4924H45.1593L47.2732 28.8871L46.4717 31.171H45.1792V31.9552H47.0025L50.0651 23.4924H51.0045V22.7048H48.3306V23.4924Z" fill="#6D6E6A"/>
<path fill-rule="evenodd" clip-rule="evenodd" d="M61.3585 24.5289C61.184 25.4847 60.9311 26.1673 60.4975 26.8522L58.5393 23.9555C59.9823 23.3624 60.627 22.671 60.627 21.7294C60.627 20.6678 59.7378 19.8354 58.602 19.8354C57.4286 19.8354 56.4736 20.7093 56.4736 21.783C56.4736 22.3946 56.8529 22.9484 57.3419 23.63C55.8644 24.2133 55.1455 25.1198 55.1455 26.3956C55.1455 28.0427 56.3868 29.2836 58.0336 29.2836C58.9353 29.2836 59.7389 28.9242 60.487 28.1815L61.1631 29.1525H62.9937V28.3671H61.5946L61.0053 27.5239C61.4744 26.8849 61.7179 26.3301 62.0105 25.2378H62.9927V24.4525H61.3731L61.3585 24.5289ZM58.5769 20.6055C59.2979 20.6055 59.8653 21.0937 59.8653 21.7163C59.8653 22.364 59.322 22.8588 58.1036 23.311C58.0482 23.228 57.9939 23.1494 57.9416 23.0718C57.5477 22.5006 57.2875 22.1216 57.2875 21.7163C57.2875 21.073 57.8298 20.6055 58.5769 20.6055ZM57.7964 24.2755L60.0158 27.5152C59.4097 28.1673 58.8361 28.4469 58.1088 28.4469C56.6773 28.4469 56.0358 27.1886 56.0358 26.294C56.0347 25.4082 56.6251 24.7299 57.7964 24.2755Z" fill="#6D6E6A"/>
<path fill-rule="evenodd" clip-rule="evenodd" d="M73.8131 26.8664C73.7389 27.0608 73.6762 27.2487 73.6229 27.4398C73.5456 27.182 73.4589 26.9319 73.3868 26.7593L70.7077 19.9807H68.3535V20.7671H69.4674V28.3682H68.3535V29.1536H71.2688V28.3682H70.2427V20.908L73.4087 29.0957L73.4317 29.1536H73.6929L76.9206 20.9037V28.3682H75.8319V29.1536H78.8736V28.3682H77.8098V20.7671H78.8736V19.9807H76.5079L73.8131 26.8664Z" fill="#6D6E6A"/>
<path fill-rule="evenodd" clip-rule="evenodd" d="M84.898 24.4035C84.898 23.1977 84.084 22.5347 82.6045 22.5347C81.3558 22.5347 80.616 22.9781 80.1322 24.0147L80.0831 24.1195L80.7571 24.3009L80.7895 24.231C81.1019 23.5385 81.6641 23.213 82.5543 23.213C83.5522 23.213 84.0579 23.6215 84.0579 24.4265V25.7274C83.4477 25.4183 82.896 25.273 82.3276 25.273C80.9901 25.273 80.0215 26.1217 80.0215 27.298C80.0215 28.3881 80.8616 29.2456 81.9336 29.2456C82.6337 29.2456 83.3474 28.9452 84.0579 28.3575V29.1516H85.8844V28.3663H84.897V24.4035H84.898ZM82.0998 28.5247C81.3893 28.5247 80.8741 28.0255 80.8741 27.3385C80.8741 26.5236 81.5052 25.9753 82.4415 25.9753C82.9879 25.9753 83.4184 26.1118 84.059 26.4919V27.5405C83.5794 28.1129 82.7602 28.5247 82.0998 28.5247Z" fill="#6D6E6A"/>
<path fill-rule="evenodd" clip-rule="evenodd" d="M89.0523 23.9655V22.705H87.0723V23.4926H88.2133V28.3673H87.0723V29.1527H90.2791V28.3673H89.0523V25.8693C89.0523 25.025 89.1997 24.4821 89.5309 24.1097C89.9196 23.6761 90.5977 23.4652 91.6008 23.4652L91.8245 23.4696V22.6209L91.7388 22.6144C90.511 22.5281 89.5466 23.0251 89.0523 23.9655Z" fill="#6D6E6A"/>
<path fill-rule="evenodd" clip-rule="evenodd" d="M95.1551 25.7435L98.1905 23.4934H99.0254V22.7059H96.3505V23.4934H97.1017L94.292 25.5556V19.9807H92.3506V20.7671H93.4529V28.3682H92.3506V29.1525H95.3933V28.3682H94.292V26.0384L97.7109 29.1525H99.1362V28.3682H98.0296L95.1551 25.7435Z" fill="#6D6E6A"/>
<path fill-rule="evenodd" clip-rule="evenodd" d="M105.417 27.2729C104.849 28.1238 104.045 28.5913 103.15 28.5913C101.842 28.5913 100.772 27.5176 100.725 26.1741H106.102L106.1 26.078C106.061 23.9601 104.825 22.5347 103.025 22.5347C101.206 22.5347 99.8838 23.9644 99.8838 25.9349C99.8838 27.9053 101.226 29.3384 103.076 29.3384C104.338 29.3384 105.493 28.6819 106.088 27.6246L106.14 27.534L105.464 27.2063L105.417 27.2729ZM102.973 23.3069C104.16 23.3069 104.973 24.0638 105.218 25.3909H100.753C100.999 24.0835 101.823 23.3069 102.973 23.3069Z" fill="#6D6E6A"/>
<path fill-rule="evenodd" clip-rule="evenodd" d="M108.764 20.6614L107.925 21.3528V22.705H106.86V23.4925H107.925V28.0517C107.925 28.8665 108.323 29.2968 109.079 29.2968C109.329 29.2968 109.624 29.2488 109.95 29.1505L110.016 29.1286V28.3411L109.906 28.3684C109.606 28.4449 109.38 28.482 109.213 28.482C108.83 28.482 108.764 28.3029 108.764 27.7611V23.4925H110.016V22.705H108.764V20.6614Z" fill="#6D6E6A"/>
<path fill-rule="evenodd" clip-rule="evenodd" d="M113.397 22.7048H111.509V23.4924H112.558V28.3671H111.509V29.1514H114.422V28.3671H113.397V22.7048Z" fill="#6D6E6A"/>
<path fill-rule="evenodd" clip-rule="evenodd" d="M112.787 21.096C113.117 21.096 113.397 20.8033 113.397 20.4582C113.397 20.1217 113.117 19.8345 112.787 19.8345C112.46 19.8345 112.192 20.1163 112.192 20.4582C112.192 20.8044 112.464 21.096 112.787 21.096Z" fill="#6D6E6A"/>
<path fill-rule="evenodd" clip-rule="evenodd" d="M121.245 24.3347C121.245 23.3069 120.559 22.6133 119.535 22.6133C118.885 22.6133 118.121 22.9508 117.373 23.5679V22.705H115.435V23.4926H116.535V28.3673H115.435V29.1527H118.347V28.3673H117.373V24.4953C118.043 23.8454 118.873 23.4259 119.498 23.4259C120.091 23.4259 120.405 23.8049 120.405 24.5204V28.3663H119.34V29.1516H122.204V28.3663H121.244V24.3347H121.245Z" fill="#6D6E6A"/>
<path fill-rule="evenodd" clip-rule="evenodd" d="M128.127 23.8606C127.582 23.0535 126.782 22.6133 125.852 22.6133C124.133 22.6133 122.787 24.0955 122.787 25.9884C122.787 27.842 124.092 29.2455 125.827 29.2455C126.789 29.2455 127.63 28.7999 128.125 28.0386V29.2838C128.125 31.2083 126.305 31.3044 125.941 31.3044C125.19 31.3044 124.55 31.0718 124.037 30.6141L123.973 30.5562L123.419 31.133L123.485 31.2018C124.056 31.7982 124.883 32.116 125.878 32.116C127.024 32.116 128.965 31.5065 128.965 29.2171V23.4936H130.078V22.7061H128.125V23.8606H128.127ZM125.864 28.4711C124.555 28.4711 123.639 27.4411 123.639 25.96C123.639 24.5007 124.594 23.3975 125.864 23.3975C127.118 23.3975 128.141 24.5302 128.141 25.9218C128.141 27.3767 127.161 28.4711 125.864 28.4711Z" fill="#6D6E6A"/>
<path fill-rule="evenodd" clip-rule="evenodd" d="M142.786 25.7425C142.155 27.5612 141.064 28.4459 139.443 28.4459C137.38 28.4459 135.938 26.837 135.938 24.5356C135.938 22.2593 137.357 20.6744 139.39 20.6744C140.727 20.6744 142.211 21.4598 142.454 22.9616L142.467 23.0403H143.228V19.9797H142.464V21.2675C141.732 20.3686 140.583 19.8345 139.34 19.8345C137.274 19.8345 135.049 21.3221 135.049 24.5869C135.049 27.3962 136.804 29.2837 139.419 29.2837C141.463 29.2837 142.921 28.1652 143.515 26.1358L143.535 26.0615L142.825 25.6399L142.786 25.7425Z" fill="#6D6E6A"/>
<path fill-rule="evenodd" clip-rule="evenodd" d="M147.79 22.5347C146.043 22.5347 144.726 23.9961 144.726 25.9349C144.726 27.8737 146.043 29.3384 147.79 29.3384C149.546 29.3384 150.869 27.8737 150.869 25.9349C150.869 23.9961 149.546 22.5347 147.79 22.5347ZM147.79 28.5247C146.507 28.5247 145.578 27.4368 145.578 25.9349C145.578 24.4352 146.508 23.3451 147.79 23.3451C149.081 23.3451 150.016 24.4352 150.016 25.9349C150.016 27.4368 149.082 28.5247 147.79 28.5247Z" fill="#6D6E6A"/>
<path fill-rule="evenodd" clip-rule="evenodd" d="M157.496 24.3347C157.496 23.3069 156.81 22.6133 155.784 22.6133C155.135 22.6133 154.375 22.9508 153.623 23.5679V22.705H151.685V23.4926H152.787V28.3673H151.685V29.1527H154.599V28.3673H153.623V24.4953C154.295 23.8454 155.123 23.4259 155.749 23.4259C156.343 23.4259 156.658 23.8049 156.658 24.5204V28.3663H155.591V29.1516H158.458V28.3663H157.495V24.3347H157.496Z" fill="#6D6E6A"/>
<path fill-rule="evenodd" clip-rule="evenodd" d="M162.423 25.4421C161.584 25.2761 160.863 25.1308 160.863 24.4263C160.863 24.0364 161.118 23.3723 162.076 23.3723C162.955 23.3723 163.605 23.9949 163.631 24.8523L163.633 24.9462H164.37V22.7038H163.631V23.2947C163.236 22.8425 162.709 22.6121 162.049 22.6121C160.93 22.6121 160.086 23.3887 160.086 24.4143C160.086 25.8113 161.234 26.044 162.247 26.2493C163.119 26.4241 163.869 26.5803 163.869 27.3776C163.869 28.0515 163.22 28.5234 162.29 28.5234C161.231 28.5234 160.521 27.8659 160.521 26.885V26.7911H159.759V29.1504H160.521V28.5212C160.915 29.0073 161.493 29.2443 162.278 29.2443C163.717 29.2443 164.648 28.4895 164.648 27.3241C164.648 25.8878 163.464 25.6518 162.423 25.4421Z" fill="#6D6E6A"/>
<path fill-rule="evenodd" clip-rule="evenodd" d="M171.242 22.7048H169.352V23.4924H170.404V27.3535C169.765 28.0165 168.948 28.4327 168.268 28.4327C167.534 28.4327 167.38 27.8865 167.38 27.43V22.7048H165.492V23.4924H166.541V27.6036C166.541 28.5998 167.168 29.2464 168.139 29.2464C168.935 29.2464 169.696 28.946 170.403 28.3584V29.1525H172.264V28.3671H171.241V22.7048H171.242Z" fill="#6D6E6A"/>
<path fill-rule="evenodd" clip-rule="evenodd" d="M175.213 19.9807H173.285V20.7671H174.374V28.3682H173.298V29.1525H176.288V28.3682H175.213V19.9807Z" fill="#6D6E6A"/>
<path fill-rule="evenodd" clip-rule="evenodd" d="M178.761 20.6614L177.922 21.3528V22.705H176.858V23.4925H177.922V28.0517C177.922 28.8665 178.322 29.2968 179.074 29.2968C179.326 29.2968 179.62 29.2488 179.949 29.1505L180.015 29.1286V28.3411L179.903 28.3684C179.603 28.4449 179.379 28.482 179.212 28.482C178.828 28.482 178.762 28.3029 178.762 27.7611V23.4925H180.015V22.705H178.762V20.6614H178.761Z" fill="#6D6E6A"/>
<path fill-rule="evenodd" clip-rule="evenodd" d="M186.107 24.4035C186.107 23.1977 185.291 22.5347 183.816 22.5347C182.566 22.5347 181.827 22.9781 181.343 24.0147L181.294 24.1195L181.967 24.3009L181.997 24.231C182.313 23.5385 182.874 23.213 183.764 23.213C184.761 23.213 185.268 23.6215 185.268 24.4265V25.7274C184.659 25.4183 184.105 25.273 183.536 25.273C182.203 25.273 181.23 26.1217 181.23 27.298C181.23 28.3881 182.071 29.2456 183.143 29.2456C183.844 29.2456 184.557 28.9452 185.268 28.3575V29.1516H187.092V28.3663H186.107V24.4035ZM183.311 28.5247C182.598 28.5247 182.083 28.0255 182.083 27.3385C182.083 26.5236 182.713 25.9753 183.65 25.9753C184.199 25.9753 184.625 26.1118 185.269 26.4919V27.5405C184.79 28.1129 183.972 28.5247 183.311 28.5247Z" fill="#6D6E6A"/>
<path fill-rule="evenodd" clip-rule="evenodd" d="M193.971 24.3347C193.971 23.3069 193.285 22.6133 192.26 22.6133C191.611 22.6133 190.85 22.9508 190.098 23.5679V22.705H188.161V23.4926H189.262V28.3673H188.161V29.1527H191.074V28.3673H190.097V24.4953C190.77 23.8454 191.6 23.4259 192.223 23.4259C192.816 23.4259 193.131 23.8049 193.131 24.5204V28.3663H192.067V29.1516H194.932V28.3663H193.969V24.3347H193.971Z" fill="#6D6E6A"/>
<path fill-rule="evenodd" clip-rule="evenodd" d="M197.233 20.6614L196.393 21.3528V22.705H195.328V23.4925H196.393V28.0517C196.393 28.8665 196.791 29.2968 197.545 29.2968C197.8 29.2968 198.091 29.2488 198.418 29.1505L198.484 29.1286V28.3411L198.374 28.3684C198.076 28.4449 197.849 28.482 197.683 28.482C197.298 28.482 197.234 28.3029 197.234 27.7611V23.4925H198.484V22.705H197.234V20.6614H197.233Z" fill="#6D6E6A"/>
<path fill-rule="evenodd" clip-rule="evenodd" d="M202.37 25.4421C201.535 25.2761 200.813 25.1308 200.813 24.4263C200.813 24.0364 201.068 23.3723 202.026 23.3723C202.902 23.3723 203.558 23.9949 203.582 24.8523L203.586 24.9462H204.316V22.7038H203.582V23.2947C203.186 22.8425 202.657 22.6121 201.999 22.6121C200.879 22.6121 200.035 23.3887 200.035 24.4143C200.035 25.8113 201.184 26.044 202.195 26.2493C203.066 26.4241 203.818 26.5803 203.818 27.3776C203.818 28.0515 203.171 28.5234 202.238 28.5234C201.18 28.5234 200.469 27.8659 200.469 26.885V26.7911H199.706V29.1504H200.469V28.5212C200.865 29.0073 201.443 29.2443 202.226 29.2443C203.665 29.2443 204.596 28.4895 204.596 27.3241C204.596 25.8878 203.414 25.6518 202.37 25.4421Z" fill="#6D6E6A"/>
<path opacity="0.7" d="M204.59 15.0515H0.294922V15.5398H204.59V15.0515Z" fill="#6D6E6A"/>
<path fill-rule="evenodd" clip-rule="evenodd" d="M6.89746 9.48315V7.92776H8.24016V1.82199H6.89746V0.266602H11.8806V1.82199H10.5389V7.92776H11.8806V9.48315H6.89746Z" fill="#95374B"/>
<path fill-rule="evenodd" clip-rule="evenodd" d="M13.0781 9.48315V7.92776H14.2171V1.82199H13.0781V0.266602H17.498L19.4332 5.6624L21.3715 0.266602H25.8875V1.82199H24.7486V7.92776H25.8875V9.48315H21.4457V7.92776H22.5156V1.82199H22.3056L19.5732 9.48315H18.6224L15.8576 1.82199H15.6475V7.92776H16.799V9.48315H13.0781Z" fill="#95374B"/>
<path fill-rule="evenodd" clip-rule="evenodd" d="M31.5406 0.124268C33.064 0.124268 34.2615 0.58302 35.135 1.50271C36.0096 2.4213 36.4453 3.54197 36.4453 4.86143C36.4453 6.18744 36.0085 7.3092 35.1308 8.22561C34.2563 9.14311 33.0588 9.60077 31.5395 9.60077C29.9617 9.60077 28.7496 9.13 27.9043 8.18519C27.0569 7.24366 26.6348 6.1361 26.6348 4.86143C26.6348 3.54634 27.0694 2.42786 27.9388 1.50489C28.8092 0.585204 30.0098 0.124268 31.5406 0.124268ZM31.5374 1.80963C30.8603 1.80963 30.2846 2.07615 29.8144 2.6059C29.3421 3.13565 29.1049 3.91334 29.1049 4.93898C29.1049 5.84447 29.339 6.56864 29.8029 7.11477C30.2679 7.65545 30.8468 7.92851 31.5364 7.92851C32.2135 7.92851 32.7892 7.65981 33.2636 7.13006C33.738 6.59704 33.9752 5.83027 33.9752 4.82647C33.9752 3.93191 33.7484 3.20227 33.296 2.6474C32.8446 2.08925 32.2584 1.80963 31.5374 1.80963Z" fill="#95374B"/>
<path fill-rule="evenodd" clip-rule="evenodd" d="M37.1816 9.48315V7.92776H38.3666V1.82199H37.1816V0.266602H40.9088L44.1292 6.00428V1.82199H42.9787V0.266602H46.9483V1.82199H45.708V9.55414H43.7363L39.9454 2.71874V7.92885H41.0519V9.48424H37.1816V9.48315Z" fill="#95374B"/>
<path fill-rule="evenodd" clip-rule="evenodd" d="M50.251 4.5733L52.9102 1.79785L55.5622 4.5733L52.9102 7.34766L50.251 4.5733Z" fill="#95374B"/>
<path fill-rule="evenodd" clip-rule="evenodd" d="M59.1035 9.48315V7.92776H60.2853V1.82199H59.1035V0.266602H63.6906V1.82199H62.5851V7.92776H63.6123V9.48315H59.1035ZM64.2883 9.48315V7.92776H65.328L62.653 4.64331L65.5296 1.82199H64.4795V0.266602H68.7887V1.82199H67.7093L65.2172 4.36916L68.1158 7.92776H69.0248V9.48315H64.2883Z" fill="#95374B"/>
<path fill-rule="evenodd" clip-rule="evenodd" d="M69.9531 1.82077V0.265381H74.1703V1.82077H73.3031V5.99432C73.3031 6.55247 73.325 6.95333 73.3689 7.20018C73.4128 7.44485 73.5319 7.64473 73.721 7.8053C73.9102 7.96586 74.1526 8.0445 74.4441 8.0445C74.7429 8.0445 74.9916 7.97023 75.1902 7.8184C75.3876 7.66658 75.5172 7.47871 75.5736 7.25479C75.6321 7.0276 75.6593 6.56885 75.6593 5.87417V1.82077H74.8015V0.265381H78.3217V1.82077H77.2392V6.43669C77.2392 7.06583 77.2068 7.52131 77.1431 7.80748C77.0793 8.09038 76.933 8.37437 76.7042 8.65508C76.4764 8.93689 76.1452 9.16517 75.7116 9.33884C75.2779 9.51142 74.7795 9.5988 74.2174 9.5988C73.5664 9.5988 73.0105 9.50268 72.5528 9.31044C72.0941 9.11929 71.7514 8.8637 71.5278 8.54585C71.3042 8.22582 71.1589 7.91125 71.0962 7.59777C71.0315 7.2821 71.0001 6.74798 71.0001 5.99104V1.81968H69.9531V1.82077Z" fill="#95374B"/>
<path fill-rule="evenodd" clip-rule="evenodd" d="M86.164 0.266262H87.6519V3.51903H86.164C85.7408 2.35686 85.0094 1.77577 83.9655 1.77577C83.1035 1.77577 82.4515 2.08052 82.0105 2.69546C81.5696 3.30822 81.3481 4.04332 81.3481 4.89856C81.3481 5.79532 81.5811 6.51949 82.0482 7.07436C82.5152 7.62595 83.1098 7.90558 83.8328 7.90558C84.4243 7.90558 84.9425 7.69695 85.3856 7.27643C85.8286 6.86137 86.1285 6.28028 86.2852 5.53536L88.0239 6.40262C87.3646 8.53581 85.9122 9.60186 83.6698 9.60186C82.0847 9.60186 80.8915 9.15731 80.0858 8.26493C79.2802 7.37036 78.8779 6.24096 78.8779 4.87672C78.8779 3.9046 79.0869 3.05482 79.507 2.32628C79.9249 1.59774 80.4871 1.04505 81.1934 0.676954C81.9019 0.308861 82.6761 0.124268 83.5225 0.124268C84.5737 0.124268 85.4545 0.410441 86.164 0.984974V0.266262Z" fill="#95374B"/>
<path fill-rule="evenodd" clip-rule="evenodd" d="M89.0547 9.48315V7.92776H90.1623V1.82199H89.0547V0.266602H93.3179V1.82199H92.3921V3.84924H94.7954V1.82199H93.9051V0.266602H98.1328V1.82199H97.0273V7.92776H98.1328V9.48315H93.9051V7.92776H94.7954V5.41664H92.3921V7.92776H93.3179V9.48315H89.0547Z" fill="#95374B"/>
<path fill-rule="evenodd" clip-rule="evenodd" d="M99.2793 9.48315V7.92776H100.339V1.82199H99.2793V0.266602H107.059V3.18842H105.369V1.82308H102.639V3.95737H104.838V5.51276H102.639V7.92995H105.369V6.55041H107.059V9.48533H99.2793V9.48315Z" fill="#95374B"/>
<path fill-rule="evenodd" clip-rule="evenodd" d="M117.42 7.92764V9.48303H114.73L112.728 5.45148H111.731V7.92874H112.839V9.48412H108.227V7.92874H109.432V1.82297H108.227V0.267578H113.543C114.543 0.267578 115.265 0.531907 115.706 1.05838C116.147 1.58922 116.369 2.18669 116.369 2.85407C116.369 3.90264 115.862 4.66723 114.845 5.15001L116.278 7.93092H117.42V7.92764ZM111.731 3.9791H112.517C113.481 3.9791 113.967 3.61647 113.967 2.89011C113.967 2.53075 113.858 2.26424 113.635 2.0862C113.414 1.90925 113.113 1.82187 112.725 1.82187H111.732V3.9791H111.731Z" fill="#95374B"/>
<path fill-rule="evenodd" clip-rule="evenodd" d="M129.522 8.00934V9.4839H126.901L126.098 8.467C125.255 9.25671 124.307 9.64774 123.251 9.64774C122.29 9.64774 121.525 9.36812 120.958 8.80779C120.387 8.24418 120.104 7.58226 120.104 6.81986C120.104 6.23004 120.285 5.70138 120.647 5.22734C121.009 4.75438 121.642 4.29345 122.542 3.84016C122.084 3.28529 121.852 2.72823 121.852 2.16462C121.852 1.51035 122.086 1.00682 122.553 0.652924C123.019 0.301215 123.586 0.124268 124.253 0.124268C124.929 0.124268 125.493 0.301215 125.938 0.652924C126.386 1.00682 126.609 1.45792 126.609 2.00733C126.609 2.85821 126.099 3.55617 125.076 4.10121L126.333 5.76255C126.807 5.09408 127.172 4.4551 127.427 3.8489H129.522V5.32346H128.438C128.117 6.0236 127.761 6.6025 127.372 7.06344L128.094 8.00934H129.522ZM123.436 4.97502C122.561 5.35404 122.122 5.87177 122.122 6.52386C122.122 6.89086 122.263 7.21526 122.54 7.49597C122.815 7.77559 123.17 7.9165 123.607 7.9165C124.112 7.9165 124.615 7.67292 125.111 7.19014L123.436 4.97502ZM124.195 2.94122C124.76 2.6758 125.044 2.36888 125.044 2.02044C125.044 1.83694 124.973 1.68075 124.832 1.54858C124.689 1.41533 124.517 1.35088 124.323 1.35088C124.131 1.35088 123.965 1.4055 123.823 1.51909C123.682 1.63269 123.611 1.76922 123.611 1.93306C123.611 2.10127 123.805 2.4366 124.195 2.94122Z" fill="#95374B"/>
<path fill-rule="evenodd" clip-rule="evenodd" d="M137.531 7.92776V9.48315H132.875V7.92776H134V1.82199H132.875V0.266602H137.521C138.603 0.266602 139.439 0.53093 140.027 1.06068C140.619 1.59152 140.913 2.30586 140.913 3.20152C140.913 3.71379 140.809 4.1791 140.603 4.59525C140.397 5.01578 140.132 5.33253 139.809 5.55645C139.487 5.78036 139.117 5.93219 138.7 6.01302C138.284 6.09603 137.764 6.13644 137.143 6.13644H136.3V7.92885H137.531V7.92776ZM136.301 4.58979H136.64C137.423 4.58979 137.926 4.45872 138.15 4.19221C138.376 3.92569 138.488 3.59255 138.488 3.19606C138.488 2.86183 138.411 2.57565 138.255 2.34082C138.098 2.10379 137.922 1.95852 137.717 1.90282C137.515 1.8493 137.187 1.82199 136.729 1.82199H136.3V4.58979H136.301Z" fill="#95374B"/>
<path fill-rule="evenodd" clip-rule="evenodd" d="M149.559 7.92776V9.48315H145.229V7.92776H146.351L145.934 6.34834H143.645L143.177 7.92776H144.359V9.48315H140.447V7.92776H141.541L143.261 1.82199H142.083V0.266602H147.846V1.82199H146.659L148.512 7.92776H149.559ZM145.572 4.99065L144.839 2.21193L144.044 4.99065H145.572Z" fill="#95374B"/>
<path fill-rule="evenodd" clip-rule="evenodd" d="M159.839 7.92764V9.48303H157.154L155.152 5.45148H154.156V7.92874H155.26V9.48412H150.65V7.92874H151.854V1.82297H150.65V0.267578H155.967C156.966 0.267578 157.687 0.531907 158.128 1.05838C158.572 1.58922 158.792 2.18669 158.792 2.85407C158.792 3.90264 158.282 4.66723 157.267 5.15001L158.7 7.93092H159.839V7.92764ZM154.155 3.9791H154.938C155.904 3.9791 156.388 3.61647 156.388 2.89011C156.388 2.53075 156.278 2.26424 156.056 2.0862C155.837 1.90925 155.533 1.82187 155.146 1.82187H154.156V3.9791H154.155Z" fill="#95374B"/>
<path fill-rule="evenodd" clip-rule="evenodd" d="M161.229 9.48302V7.92763H162.56V1.82186H161.229V3.96598H159.717V0.265381H167.724V3.96598H166.223V1.82186H164.861V7.92763H166.189V9.48302H161.229Z" fill="#95374B"/>
<path fill-rule="evenodd" clip-rule="evenodd" d="M168.78 9.48315V7.92776H169.965V1.82199H168.78V0.266602H172.505L175.728 6.00428V1.82199H174.574V0.266602H178.543V1.82199H177.304V9.55414H175.332L171.541 2.71874V7.92885H172.645V9.48424H168.78V9.48315Z" fill="#95374B"/>
<path fill-rule="evenodd" clip-rule="evenodd" d="M179.614 9.48315V7.92776H180.674V1.82199H179.614V0.266602H187.392V3.18842H185.703V1.82308H182.972V3.95737H185.173V5.51276H182.972V7.92995H185.703V6.55041H187.392V9.48533H179.614V9.48315Z" fill="#95374B"/>
<path fill-rule="evenodd" clip-rule="evenodd" d="M197.713 7.92764V9.48303H195.027L193.027 5.45148H192.027V7.92874H193.135V9.48412H188.526V7.92874H189.731V1.82297H188.526V0.267578H193.839C194.842 0.267578 195.563 0.531907 196.001 1.05838C196.446 1.58922 196.666 2.18669 196.666 2.85407C196.666 3.90264 196.158 4.66723 195.142 5.15001L196.576 7.93092H197.713V7.92764ZM192.026 3.9791H192.811C193.778 3.9791 194.263 3.61647 194.263 2.89011C194.263 2.53075 194.151 2.26424 193.931 2.0862C193.709 1.90925 193.408 1.82187 193.02 1.82187H192.027V3.9791H192.026Z" fill="#95374B"/>
<path fill-rule="evenodd" clip-rule="evenodd" d="M198.776 9.48369V6.33578H200.275C200.294 6.91359 200.435 7.33957 200.705 7.61264C200.974 7.88571 201.282 8.02224 201.627 8.02224C201.898 8.02224 202.121 7.92394 202.308 7.72624C202.494 7.53181 202.588 7.29916 202.588 7.03592C202.588 6.75412 202.494 6.51491 202.313 6.32377C202.133 6.13043 201.802 5.91307 201.319 5.6695C200.299 5.15832 199.608 4.70393 199.244 4.31072C198.878 3.91641 198.697 3.38448 198.697 2.71273C198.697 1.90555 198.938 1.27968 199.419 0.835125C199.9 0.392757 200.447 0.172119 201.06 0.172119C201.761 0.172119 202.304 0.460478 202.689 1.0361V0.267146H204.177V3.06226H202.689C202.642 2.6319 202.501 2.30204 202.26 2.06611C202.024 1.83346 201.747 1.71549 201.432 1.71549C201.187 1.71549 200.978 1.7843 200.809 1.92084C200.642 2.05737 200.556 2.2376 200.556 2.45933C200.556 2.64938 200.625 2.82742 200.766 3C200.905 3.16821 201.315 3.41069 201.988 3.7198C202.64 4.02236 203.14 4.29761 203.489 4.54228C203.834 4.78804 204.112 5.10589 204.314 5.49692C204.515 5.88686 204.618 6.34015 204.618 6.85679C204.618 7.76665 204.365 8.45259 203.856 8.91353C203.352 9.37119 202.751 9.60166 202.06 9.60166C201.289 9.60166 200.692 9.30347 200.275 8.70054V9.48479H198.776V9.48369Z" fill="#95374B"/>
<path fill-rule="evenodd" clip-rule="evenodd" d="M0.340994 9.48369V6.33578H1.84042C1.85819 6.91359 2.00134 7.33957 2.27092 7.61264C2.5405 7.88571 2.8477 8.02224 3.19357 8.02224C3.46315 8.02224 3.68989 7.92394 3.87484 7.72624C4.05979 7.53181 4.15278 7.29916 4.15278 7.03592C4.15278 6.75412 4.06292 6.51491 3.88215 6.32377C3.70034 6.13043 3.36806 5.91307 2.88637 5.6695C1.86655 5.15832 1.17378 4.70393 0.809109 4.31072C0.446529 3.91641 0.263672 3.38448 0.263672 2.71273C0.263672 1.90555 0.503998 1.27968 0.985696 0.835125C1.46739 0.392757 2.01492 0.172119 2.62723 0.172119C3.32731 0.172119 3.87066 0.460478 4.25518 1.0361V0.267146H5.74416V3.06226H4.25309C4.20607 2.6319 4.06501 2.30204 3.82677 2.06611C3.58854 1.83346 3.31059 1.71549 2.99608 1.71549C2.75053 1.71549 2.54364 1.7843 2.37541 1.92084C2.20718 2.05737 2.12255 2.2376 2.12255 2.45933C2.12255 2.64938 2.19151 2.82742 2.33153 3C2.46945 3.16821 2.87801 3.41069 3.55406 3.7198C4.20503 4.02236 4.70449 4.29761 5.05244 4.54228C5.40144 4.78804 5.67624 5.10589 5.87895 5.49692C6.08166 5.88686 6.18406 6.34015 6.18406 6.85679C6.18406 7.76665 5.93015 8.45259 5.42442 8.91353C4.91765 9.37119 4.31892 9.60166 3.62615 9.60166C2.85502 9.60166 2.25943 9.30347 1.84147 8.70054V9.48479H0.340994V9.48369Z" fill="#95374B"/>
</g>
<defs>
<clipPath id="clip0">
<rect width="204.8" height="32.1255" fill="white"/>
</clipPath>
</defs>
</svg>
